<?xml version="1.0" ?><svg xmlns="http://www.w3.org/2000/svg" xmlns:xlink="http://www.w3.org/1999/xlink" version="1.1" id="Icons" viewBox="0 0 32 32" style="enable-background:new 0 0 32 32;" xml:space="preserve"><style type="text/css">
	.st0{fill:#384970;}
</style><path class="st0" d="M28,24h-2v-2c0-0.55-0.45-1-1-1s-1,0.45-1,1v2h-2c-0.55,0-1,0.45-1,1s0.45,1,1,1h2v2c0,0.55,0.45,1,1,1  s1-0.45,1-1v-2h2c0.55,0,1-0.45,1-1S28.55,24,28,24z"/><path class="st0" d="M19,25c0-3.06,2.29-5.58,5.24-5.95l3.75-2.8c0.63-0.47,1.01-1.22,1.01-2.01c0-1.2-0.85-2.23-2.03-2.46  l-6.23-1.2L18.3,4.55C17.92,3.61,17.02,3,16,3c-1.02,0-1.92,0.61-2.3,1.55l-2.44,6.03l-6.23,1.2C3.85,12.01,3,13.04,3,14.24  c0,0.79,0.38,1.54,1.01,2.01l4.37,3.27l-1.26,5.8C7.04,25.7,7,26.09,7,26.48c0,0.67,0.26,1.3,0.74,1.78  c0.84,0.84,2.24,0.97,3.22,0.29l5.04-3.5l3.56,2.47C19.21,26.76,19,25.9,19,25z"/></svg>