<?xml version="1.0" ?><svg xmlns="http://www.w3.org/2000/svg" xmlns:xlink="http://www.w3.org/1999/xlink" version="1.1" viewBox="0 0 512 512" style="enable-background:new 0 0 512 512;" xml:space="preserve"><g id="_x33_4_x2C__scissors_x2C__art_and_design_x2C__handcraft_x2C__craft_x2C__office_material_x2C__cut"><g><g><path style="fill:#283954;" d="M362.266,292.596l-31.794-41.843c-3.34-4.397-9.614-5.254-14.012-1.912     c-4.397,3.341-5.254,9.614-1.912,14.012l35.59,46.84c2.389,3.145,6.409,4.588,10.252,3.685c6.695-1.575,13.629-2.374,20.61-2.374     c49.626,0,90,40.374,90,90s-40.374,90-90,90s-90-40.374-90-90c0-15.612,4.06-30.989,11.738-44.47     c1.983-3.481,1.697-7.81-0.726-10.999l-34.93-45.98c-2.65-3.488-7.142-4.739-11.083-3.444c-3.94-1.295-8.434-0.044-11.083,3.444     l-34.93,45.98c-2.423,3.189-2.709,7.518-0.726,10.999c7.679,13.48,11.738,28.857,11.738,44.47c0,49.626-40.374,90-90,90     s-90-40.374-90-90s40.374-90,90-90c6.981,0,13.915,0.799,20.61,2.374c3.846,0.903,7.862-0.54,10.252-3.685l35.59-46.84     c3.342-4.397,2.485-10.671-1.912-14.012c-4.399-3.342-10.672-2.484-14.012,1.912l-31.794,41.843     C82.148,280.983,21,333.271,21,401.003c0,60.654,49.346,110,110,110s110-49.346,110-110c0-16.831-3.865-33.446-11.228-48.451     L256,318.026l26.228,34.525C274.865,367.557,271,384.172,271,401.003c0,60.654,49.346,110,110,110s110-49.346,110-110     C491,333.271,429.852,280.983,362.266,292.596z"/><path style="fill:#283954;" d="M181.807,220.373c3.343,4.398,9.612,5.254,14.013,1.913c4.397-3.341,5.254-9.614,1.913-14.013     L111.474,94.735c-17.02-22.413-13.012-54.62,9.816-71.97c3.79-2.88,9.205-2.162,12.097,1.647l112.45,148.01     c2.446,3.218,6.46,4.529,10.162,3.698c3.702,0.833,7.717-0.479,10.164-3.698L378.614,24.411     c2.896-3.814,8.313-4.519,12.096-1.646c22.598,17.171,27.001,49.365,9.817,71.969l-86.26,113.54     c-3.341,4.398-2.484,10.672,1.913,14.013c4.398,3.341,10.67,2.485,14.013-1.913l86.258-113.538     c23.866-31.394,17.767-76.13-13.642-99.994c-12.595-9.572-30.547-7.134-40.122,5.473L256,152.738L149.313,12.315     c-9.579-12.613-27.528-15.043-40.125-5.474c-31.759,24.14-37.252,68.896-13.642,99.991L181.807,220.373z"/></g><g><path style="fill:#3A98FF;" d="M256,156.332c-43.931,0-79.671,35.74-79.671,79.671s35.74,79.671,79.671,79.671     s79.671-35.74,79.671-79.671S299.931,156.332,256,156.332z M256,295.674c-32.902,0-59.671-26.769-59.671-59.671     s26.769-59.671,59.671-59.671s59.671,26.769,59.671,59.671S288.902,295.674,256,295.674z"/><path style="fill:#3A98FF;" d="M256,201.003c-19.299,0-35,15.701-35,35s15.701,35,35,35s35-15.701,35-35     S275.299,201.003,256,201.003z M256,251.003c-8.271,0-15-6.729-15-15s6.729-15,15-15s15,6.729,15,15S264.271,251.003,256,251.003     z"/><path style="fill:#3A98FF;" d="M381,341.003c-33.084,0-60,26.916-60,60s26.916,60,60,60s60-26.916,60-60     S414.084,341.003,381,341.003z M381,441.003c-22.056,0-40-17.944-40-40s17.944-40,40-40s40,17.944,40,40     S403.056,441.003,381,441.003z"/><path style="fill:#3A98FF;" d="M131,341.003c-33.084,0-60,26.916-60,60s26.916,60,60,60s60-26.916,60-60     S164.084,341.003,131,341.003z M131,441.003c-22.056,0-40-17.944-40-40s17.944-40,40-40s40,17.944,40,40     S153.056,441.003,131,441.003z"/></g></g></g><g id="Layer_1"/></svg>