<?xml version="1.0" ?><svg xmlns="http://www.w3.org/2000/svg" xmlns:xlink="http://www.w3.org/1999/xlink" version="1.1" viewBox="0 0 512 512" style="enable-background:new 0 0 512 512;" xml:space="preserve"><g id="_x31_4_x2C__painting_x2C__paint_x2C__art_x2C__art_and_design_x2C__canvas_x2C__easel"><g><g><path style="fill:#3A98FF;" d="M480.613,225.28c-1.521-5.31-7.058-8.381-12.367-6.859c-70.752,20.272-146.9,4.442-203.697-42.346     c-65.012-53.191-150.136-68.028-226.578-43.731c-5.263,1.673-8.174,7.296-6.501,12.56s7.295,8.173,12.56,6.501     c60.732-19.302,125.591-11.598,179.36,20.171c-40.61,32.406-68.599,80.168-78.189,127.437c-1.099,5.412,2.398,10.69,7.812,11.788     c5.394,1.099,10.687-2.386,11.788-7.812c9.442-46.527,38.417-91.8,76.29-119.78c6.705,4.876,10.273,7.965,11.028,8.537     c62.115,51.011,144.998,67.861,221.637,45.901C479.063,236.126,482.135,230.588,480.613,225.28z"/><path style="fill:#3A98FF;" d="M386,141.001c24.813,0,45-20.187,45-45s-20.187-45-45-45s-45,20.187-45,45     S361.187,141.001,386,141.001z M386,71.001c13.785,0,25,11.215,25,25s-11.215,25-25,25s-25-11.215-25-25     S372.215,71.001,386,71.001z"/></g><g><path style="fill:#283954;" d="M481,292.266V61.001c0-33.084-26.916-60-60-60H91c-33.084,0-60,26.916-60,60v231.266     c-17.233,4.452-30,20.13-30,38.734c0,22.056,17.944,40,40,40h30.006l-18.929,85.234c-6.202,27.952,15.087,54.763,43.933,54.763     c20.621-0.001,39.27-14.298,43.932-35.249l3.275-14.748h225.567l3.276,14.752c5.368,24.128,29.374,39.567,53.688,34.171     c24.22-5.379,39.55-29.463,34.174-53.69l-18.928-85.232H471c22.056,0,40-17.944,40-40C511,312.397,498.233,296.718,481,292.266z      M51,61.001c0-22.056,17.944-40,40-40h330c22.056,0,40,17.944,40,40v230H51V61.001z M90.588,490.398     c-13.456-2.987-21.973-16.37-18.986-29.829l19.891-89.568h51.224c-2.317,10.436-19.569,88.119-22.298,100.408     C117.424,484.867,104.041,493.394,90.588,490.398z M147.658,441.001l15.544-70h185.596l15.544,70H147.658z M440.397,460.567     c2.987,13.461-5.529,26.844-18.985,29.831c-13.444,2.991-26.835-5.529-29.83-18.985c-2.888-13.005-19.89-89.571-22.298-100.412     h51.224L440.397,460.567z M471,351.001c-19.143,0-412.746,0-430,0c-11.028,0-20-8.972-20-20s8.972-20,20-20h430     c11.028,0,20,8.972,20,20S482.028,351.001,471,351.001z"/></g></g></g><g id="Layer_1"/></svg>