<?xml version="1.0" ?><svg xmlns="http://www.w3.org/2000/svg" xmlns:xlink="http://www.w3.org/1999/xlink" version="1.1" viewBox="0 0 512 512" style="enable-background:new 0 0 512 512;" xml:space="preserve"><g id="_x34_3_x2C__plier_x2C__construction_and_tools_x2C__work_tool_x2C__work_tools_x2C__pliers_x2C__equipment"><g><g><path style="fill:#283954;" d="M359.757,275.812l-5.511-2.22l17.318-42.972c2.064-5.123-0.415-10.949-5.537-13.014     c-5.124-2.063-10.948,0.415-13.014,5.537l-17.317,42.973l-18.711-7.538l11.576-28.732c2.064-5.123-0.416-10.949-5.538-13.013     c-5.124-2.062-10.949,0.414-13.013,5.538l-11.579,28.739l-9.235-3.72c-6.355-2.564-13.349,1.899-13.722,8.731     c-3.794,69.732-29.684,143.225-72.406,202.011c-12.749,17.542-5.647,42.372,14.456,50.469     c13.703,5.519,29.611,1.229,38.695-10.416c38.647-49.541,64.829-109.08,76.839-168.258l4.216,1.698     c15.427,6.216,32.936-1.244,39.15-16.666C382.636,299.533,375.181,282.023,359.757,275.812z M357.873,307.487     c-2.085,5.174-7.959,7.671-13.125,5.587l-15.54-6.259c-5.918-2.378-12.522,1.313-13.594,7.593     c-10.589,62.011-37.123,122.715-75.164,171.476c-3.632,4.654-9.984,6.371-15.452,4.167c-8.021-3.232-10.852-13.141-5.751-20.16     c40.081-55.152,68.306-125.771,75.168-198.837l57.87,23.309C357.456,296.446,359.954,302.316,357.873,307.487z"/><path style="fill:#283954;" d="M264.61,222.805l-3.72-9.235l28.739-11.579c5.122-2.063,7.603-7.89,5.538-13.013     c-2.063-5.122-7.891-7.602-13.013-5.538l-28.732,11.576l-7.538-18.711l42.973-17.317c5.122-2.064,7.602-7.891,5.537-13.014     c-2.065-5.123-7.891-7.6-13.014-5.537l-42.972,17.318l-2.22-5.511c-6.212-15.425-23.724-22.879-39.148-16.666     c-15.427,6.214-22.878,23.725-16.667,39.148l1.699,4.217C122.9,190.951,63.358,217.132,13.816,255.781     c-11.65,9.089-15.935,25-10.417,38.694c8.105,20.128,32.951,27.192,50.469,14.457c58.787-42.723,132.28-68.612,202.011-72.406     C262.718,236.153,267.169,229.156,264.61,222.805z M42.11,292.755c-7.024,5.1-16.929,2.269-20.16-5.753     c-2.202-5.466-0.488-11.819,4.168-15.451c48.814-38.084,109.538-64.587,171.475-75.164c6.287-1.073,9.972-7.687,7.593-13.594     l-6.26-15.541c-2.084-5.17,0.418-11.042,5.588-13.123c5.202-2.097,11.055,0.449,13.125,5.587l23.309,57.87     C167.952,224.441,97.319,252.63,42.11,292.755z"/><path style="fill:#283954;" d="M510.015,108.777l-11.964-25.101c-2.377-4.986-8.346-7.098-13.33-4.725     c-21.663,10.329-98.035,46.712-98.775,47.102c0.382-0.722,36.971-77.527,47.102-98.774c2.376-4.985,0.261-10.953-4.725-13.33     L403.223,1.985c-3.691-1.76-8.081-1.095-11.086,1.68L355.453,37.53c-0.935,0.863-1.696,1.896-2.244,3.046l-31.491,66.078     c-2.376,4.985-0.261,10.953,4.726,13.329c4.98,2.379,10.952,0.262,13.329-4.726l30.662-64.339l30.295-27.967l9.963,4.749     l-42.596,89.369c-2.376,4.985-0.261,10.954,4.725,13.33c2.967,1.415,6.28,1.227,8.98-0.202c-1.428,2.7-1.616,6.012-0.201,8.981     c2.378,4.984,8.346,7.098,13.33,4.725l89.369-42.596l4.749,9.963l-27.967,30.295l-64.339,30.662     c-4.986,2.376-7.102,8.344-4.726,13.329c2.372,4.976,8.332,7.106,13.329,4.726l66.078-31.491c1.149-0.548,2.183-1.31,3.046-2.244     l33.865-36.685C511.109,116.858,511.774,112.469,510.015,108.777z"/></g><g><path style="fill:#3A98FF;" d="M391.485,120.516c-27.395-27.393-71.969-27.393-99.363,0c-27.394,27.395-27.394,71.969,0,99.363     c27.395,27.394,71.968,27.393,99.363,0C418.878,192.484,418.878,147.91,391.485,120.516z M377.342,205.736     c-19.598,19.598-51.484,19.594-71.078,0c-19.596-19.596-19.596-51.482,0-71.078s51.482-19.596,71.078,0     S396.938,186.141,377.342,205.736z"/><path style="fill:#3A98FF;" d="M318.343,146.737C318.343,146.737,318.343,146.737,318.343,146.737     c-12.935,12.937-12.935,33.984,0,46.92c12.938,12.936,33.984,12.934,46.92,0c12.935-12.936,12.935-33.983-0.001-46.92     S331.279,133.803,318.343,146.737z M351.122,179.515c-5.138,5.14-13.498,5.138-18.636,0s-5.138-13.497,0-18.636v0.001     c5.136-5.138,13.497-5.137,18.635-0.001C356.258,166.018,356.258,174.377,351.122,179.515z"/></g></g></g><g id="Layer_1"/></svg>