<?xml version="1.0" ?><svg xmlns="http://www.w3.org/2000/svg" xmlns:xlink="http://www.w3.org/1999/xlink" version="1.1" viewBox="0 0 512 512" style="enable-background:new 0 0 512 512;" xml:space="preserve"><g id="_x30_8_x2C__glue_x2C__liquid_x2C__bottle_x2C__liquid_glue_x2C__crafts_x2C__school_material"><g><g><path style="fill:#3A98FF;" d="M500.891,356.538l-58.697-59.079c-3.892-3.919-10.225-3.939-14.142-0.046     c-3.918,3.893-3.938,10.224-0.046,14.142l58.697,59.079c4.949,4.981,5.7,12.829,1.786,18.659     c-3.914,5.829-11.462,8.104-17.946,5.411l-76.905-31.958c-5.097-2.119-10.952,0.297-13.071,5.396     c-2.119,5.101,0.297,10.953,5.396,13.072l76.905,31.958c15.219,6.325,32.994,1.021,42.227-12.732     C514.304,386.722,512.535,368.258,500.891,356.538z"/><path style="fill:#3A98FF;" d="M300.302,140.788c-5.756-3.864-129.335-86.829-134.946-90.597     c-4.567-3.064-10.786-1.872-13.877,2.729L49.558,204.735c-3.078,4.586-1.856,10.799,2.729,13.877     c6.126,4.113,128.991,86.598,134.946,90.597c4.566,3.065,10.786,1.873,13.877-2.729L303.03,154.665     C306.108,150.079,304.887,143.866,300.302,140.788z M238.681,123.508l-90.773,135.211l-17-11.413l-17-11.413l90.773-135.211     C216.57,108.664,226.791,115.526,238.681,123.508z M162.51,72.37l25.566,17.164L97.302,224.745l-25.566-17.164L162.51,72.37z      M190.078,287.03l-25.566-17.164l90.773-135.211l25.566,17.164L190.078,287.03z"/></g><g><path style="fill:#283954;" d="M432.077,326.95c14.394-21.441,9-13.406,22.649-33.737c3.078-4.585,1.855-10.798-2.729-13.877     c-46.511-31.223-49.211-33.038-49.51-33.238c-34.773-23.345-54.717-62.273-53.35-104.133c0.591-18.117-8.041-34.966-23.09-45.069     L202.101,13.684c-32.562-21.86-76.598-13.197-98.455,19.359L13.049,167.99c-21.806,32.481-13.12,76.648,19.36,98.455     l123.947,83.212c15.049,10.104,33.912,11.713,50.456,4.306c38.228-17.114,81.809-13.395,116.58,9.95     c12.768,8.572,36.79,24.699,49.51,33.238c4.576,3.069,10.792,1.865,13.877-2.729c0.069-0.103,22.719-33.837,22.649-33.736     c0.002-0.003,0.003-0.005,0.005-0.008l22.643-33.727C432.076,326.951,432.077,326.951,432.077,326.95z M421.046,307.499     l-25.565-17.163l11.501-17.131l25.565,17.163L421.046,307.499z M398.397,341.235l-25.565-17.163l11.501-17.131l25.565,17.164     L398.397,341.235z M198.641,335.71c-10.211,4.571-21.851,3.576-31.136-2.658L43.558,249.84     c-23.325-15.659-29.563-47.377-13.903-70.702l90.597-134.946c15.697-23.382,47.319-29.601,70.701-13.902L314.9,113.501     c9.287,6.234,14.613,16.632,14.248,27.812c-1.569,48.084,21.569,93.63,61.231,120.739l-56.805,84.613     C293.349,320.14,242.413,316.112,198.641,335.71z M375.748,374.973l-25.566-17.164l11.501-17.131l25.565,17.164L375.748,374.973z     "/><path style="fill:#283954;" d="M479.443,440.382c-18.035,0-30,24.075-30,40c0,16.542,13.458,30,30,30s30-13.458,30-30     C509.443,464.457,497.478,440.382,479.443,440.382z M479.443,490.382c-5.514,0-10-4.486-10-10c0-8.903,7.344-19.597,9.972-20.001     c2.676,0.357,10.028,11.043,10.028,20.001C489.443,485.895,484.957,490.382,479.443,490.382z"/></g></g></g><g id="Layer_1"/></svg>