<?xml version="1.0" ?><svg xmlns="http://www.w3.org/2000/svg" xmlns:xlink="http://www.w3.org/1999/xlink" version="1.1" viewBox="0 0 512 512" style="enable-background:new 0 0 512 512;" xml:space="preserve"><g id="_x32_9_x2C__marker_x2C__education_x2C__Tools_and_utensils_x2C__edit_tools_x2C__writing_x2C__pen"><g><g><path style="fill:#3A98FF;" d="M508.062,472.829l-87.219-87.229c-3.903-3.905-10.236-3.905-14.142-0.001     c-3.906,3.905-3.906,10.236-0.001,14.142l70.15,70.159H420.7l-42.079-42.079c-3.906-3.904-10.236-3.904-14.143,0     c-3.905,3.905-3.905,10.237,0,14.143l45.008,45.008c1.876,1.875,4.419,2.929,7.071,2.929h84.433c4.045,0,7.69-2.437,9.238-6.173     S510.922,475.688,508.062,472.829z"/><path style="fill:#3A98FF;" d="M385.657,280.053c-3.906-3.904-10.236-3.904-14.143,0l-28.11,28.11l-133.62-133.62l28.11-28.11     c3.905-3.905,3.905-10.237,0-14.143c-3.906-3.904-10.236-3.904-14.143,0l-35.182,35.182c-3.905,3.905-3.905,10.237,0,14.143     l147.763,147.763c3.906,3.904,10.235,3.906,14.143,0l35.182-35.182C389.563,290.291,389.563,283.959,385.657,280.053z"/><path style="fill:#3A98FF;" d="M160.495,209.691c-3.905-3.902-10.235-3.904-14.143,0l-35.182,35.181     c-3.905,3.905-3.905,10.237,0,14.143c3.906,3.904,10.236,3.905,14.143,0l28.11-28.11l133.62,133.621l-28.11,28.109     c-3.905,3.905-3.905,10.237,0,14.143c3.906,3.904,10.235,3.906,14.143,0l35.182-35.181c3.904-3.904,3.903-10.238,0-14.143     L160.495,209.691z"/></g><g><path style="fill:#283954;" d="M420.839,343.38l-8.222-8.222c5.274-11.107,3.328-24.816-5.85-33.996     c-9.577-9.577-253.131-253.129-267.381-267.379c-15.576-15.578-40.785-15.576-56.36-0.001     c-15.08,15.08-48.46,48.459-70.363,70.364c-15.537,15.538-15.537,40.82,0,56.358c0,0.001,0,0.001,0,0.001     c14.68,14.68,257.061,257.059,267.381,267.379c9.205,9.207,22.893,11.154,34.002,5.858l8.215,8.215     c15.54,15.538,40.82,15.538,56.36,0l42.218-42.218C436.377,384.202,436.377,358.92,420.839,343.38z M125.243,47.925     l21.074,21.074l-21.039,21.039L90.167,54.926l7.001-7.001C104.926,40.165,117.486,40.166,125.243,47.925z M47.949,97.144     l28.075-28.075l56.256,56.256c7.74,7.74,7.74,20.335,0,28.075c-7.739,7.739-20.334,7.741-28.075,0L47.949,97.144z      M26.805,146.365c-7.74-7.741-7.74-20.336,0-28.076l7.002-7.002l35.112,35.112l-21.04,21.04L26.805,146.365L26.805,146.365z      M294.186,413.744L62.022,181.581l21.04-21.04l7.001,7.001c15.54,15.538,40.82,15.538,56.36,0     c15.538-15.539,15.538-40.821,0-56.36l-7.002-7.002l21.039-21.039l232.165,232.163c3.86,3.861,3.86,10.144,0,14.004     c-0.218,0.218-85.009,85.008-84.441,84.441C304.311,417.615,298.05,417.61,294.186,413.744z M406.697,385.598l-42.218,42.218     c-7.741,7.741-20.336,7.739-28.075,0l-7.002-7.001l70.294-70.293l7.001,7.001C414.437,365.263,414.437,377.858,406.697,385.598z"/></g></g></g><g id="Layer_1"/></svg>