<?xml version="1.0" ?><svg xmlns="http://www.w3.org/2000/svg" xmlns:xlink="http://www.w3.org/1999/xlink" version="1.1" viewBox="0 0 512 512" style="enable-background:new 0 0 512 512;" xml:space="preserve"><g id="_x34_4_x2C__carpenter_x2C__screw_x2C__hammer_x2C__construction_and_tools_x2C__DIY_x2C__home_repair"><g><path style="fill:#3A98FF;" d="M184.429,73.931L33.607,191.594c-4.354,3.397-5.13,9.682-1.733,14.036    c3.396,4.354,9.681,5.129,14.036,1.733L196.732,89.701c4.354-3.397,5.13-9.682,1.733-14.036S188.783,70.535,184.429,73.931z"/><path style="fill:#3A98FF;" d="M431.005,281.005c-22.43,0-40,13.178-40,30c0,14.223,12.562,25.839,30,29.09v70.91    c0,5.522,4.478,10,10,10s10-4.478,10-10v-70.91c17.438-3.25,30-14.867,30-29.09C471.005,294.183,453.435,281.005,431.005,281.005z     M431.005,321.005c-12.209,0-20-5.923-20-10s7.791-10,20-10s20,5.923,20,10S443.214,321.005,431.005,321.005z"/><g><path style="fill:#283954;" d="M42.57,219.34c9.087,11.648,14.841,25.555,16.64,40.216c1.535,12.507,5.382,24.572,11.289,35.595     l-7.596,5.925c-15.688,12.239-18.493,34.959-6.254,50.648s34.959,18.49,50.646,6.254l6.433-5.019l9.894,12.683     c12.241,15.689,34.963,18.492,50.647,6.255c8.082-6.306,12.735-15.394,13.683-24.868c20.392,2.997,39.077-11.541,41.134-32.09     c20.488,3.009,39.103-11.663,41.156-32.064c9.414,1.376,19.347-0.944,27.427-7.247c15.726-12.269,18.521-34.925,6.255-50.647     l-9.894-12.682c2.207-1.766,66.819-52.128,66.921-52.208c4.354-3.397,5.13-9.682,1.733-14.036s-9.682-5.131-14.036-1.733     l-35.621,27.79c-1.076-5.303-3.358-10.446-6.915-15.005l-9.89-12.677l32.643-25.465c4.355-3.397,5.131-9.681,1.734-14.035     c-3.396-4.355-9.684-5.131-14.035-1.734l-32.994,25.738c-10.952-11.232-25.273-18.378-41.068-20.328     c-13.089-1.617-24.765-8.233-32.876-18.632l-32.556-41.729c-15.225-19.516-43.338-22.986-62.852-7.763l-95.977,74.877     c-19.518,15.225-22.986,43.337-7.764,62.852L42.57,219.34z M72.417,339.422c-5.456-6.994-4.205-17.122,2.787-22.577l6.433-5.019     l19.787,25.363l-6.433,5.019C87.998,347.662,77.871,346.412,72.417,339.422z M161.966,356.127     c-6.993,5.455-17.121,4.206-22.575-2.788c-17.868-22.902-19.364-24.82-32.096-41.14c-5.449-6.994-4.197-17.116,2.794-22.569     c6.995-5.459,17.1-4.231,22.575,2.788l32.09,41.134C170.21,340.544,168.959,350.672,161.966,356.127z M203.101,324.037     c-6.994,5.454-17.122,4.205-22.577-2.788l-32.09-41.134c-5.456-6.992-4.205-17.12,2.787-22.575     c6.993-5.456,17.121-4.207,22.577,2.788l32.09,41.134C211.344,308.454,210.093,318.582,203.101,324.037z M244.233,291.948     c-6.993,5.455-17.121,4.206-22.575-2.788l-32.09-41.134c-5.469-7.01-4.221-17.107,2.788-22.575     c6.982-5.448,17.025-4.225,22.506,2.708c2.017,2.6-9.327-11.952,32.16,41.213C252.492,276.383,251.241,286.483,244.233,291.948z      M288.155,237.283c5.456,6.992,4.205,17.12-2.788,22.575c-6.994,5.459-17.101,4.23-22.575-2.788l-12.215-15.658     c5.406-1.094,10.527-3.426,15.003-6.917l12.681-9.894L288.155,237.283z M30.545,131.126l95.978-74.877     c10.802-8.427,26.358-6.501,34.779,4.296l32.556,41.729c11.396,14.61,27.802,23.907,46.194,26.18     c13.088,1.616,24.764,8.232,32.876,18.631l17.415,22.323c5.47,7.011,4.22,17.109-2.789,22.575l-34.276,26.742     c-6.996,5.454-17.123,4.204-22.577-2.789c-5.47-7.011-4.219-17.11,2.789-22.575l13.711-10.696     c4.354-3.397,5.13-9.682,1.733-14.036c-3.399-4.354-9.682-5.13-14.036-1.733l-13.71,10.696     c-7.6,5.928-12.67,14.651-13.698,24.841c-20.306-2.978-39.06,11.527-41.12,32.118c-20.416-3.001-39.065,11.559-41.131,32.064     c-15.422-2.269-30.202,5.557-37.195,18.929c-4.696-8.808-7.759-18.44-8.983-28.424c-2.241-18.259-9.406-35.576-20.722-50.082     l-32.09-41.133C17.823,155.105,19.747,139.548,30.545,131.126z"/><path style="fill:#283954;" d="M471.005,401.005h-430c-22.056,0-40,17.944-40,40s17.944,40,40,40h430c22.056,0,40-17.944,40-40     S493.061,401.005,471.005,401.005z M471.005,461.005h-430c-11.028,0-20-8.972-20-20s8.972-20,20-20h430c11.028,0,20,8.972,20,20     S482.033,461.005,471.005,461.005z"/></g><path style="fill:#3A98FF;" d="M424.138,221.076l35.437-27.646c19.467-15.19,14.909-45.768-8.108-54.639l-8.898-3.429    l-54.778-70.215c-26-33.328-72.181-43.532-109.809-24.27l-8.558,4.382c-7.231,3.703-11.528,11.333-10.945,19.437    c0.582,8.104,5.925,15.04,13.611,17.672l6.681,2.287c9.504,3.253,17.793,9.16,23.973,17.081l69.21,88.716l1.162,9.466    C376.122,224.426,404.687,236.246,424.138,221.076z M285.247,65.733l-6.68-2.287c-0.166-0.056-0.247-0.273-0.028-0.385    l8.557-4.381c29.098-14.901,64.814-7.007,84.924,18.77l50.331,64.513l-39.076,30.485l-64.762-83.015    C309.937,78.443,298.434,70.246,285.247,65.733z M392.966,197.482l-0.81-6.596l45.917-35.822l6.2,2.39    c5.763,2.221,7.087,7.194,7.39,9.229c0.302,2.035,0.479,7.179-4.392,10.978l-35.437,27.646c-4.868,3.8-9.814,2.375-11.716,1.588    C398.219,206.106,393.718,203.611,392.966,197.482z"/></g></g><g id="Layer_1"/></svg>