<?xml version="1.0" ?><svg xmlns="http://www.w3.org/2000/svg" xmlns:xlink="http://www.w3.org/1999/xlink" version="1.1" viewBox="0 0 512 512" style="enable-background:new 0 0 512 512;" xml:space="preserve"><g id="_x32_6_x2C__drawing_tools_x2C__art_and_design_x2C__paint_brush_x2C__pencil_x2C__set_x2C__art"><g><path style="fill:#3A98FF;" d="M280.989,111.021c-5.522,0-10,4.478-10,10v300c0,5.522,4.478,10,10,10s10-4.478,10-10v-300    C290.989,115.499,286.512,111.021,280.989,111.021z"/><path style="fill:#3A98FF;" d="M230.989,111.021c-5.522,0-10,4.478-10,10v300c0,5.522,4.478,10,10,10s10-4.478,10-10v-300    C240.989,115.499,236.512,111.021,230.989,111.021z"/><path style="fill:#3A98FF;" d="M60.989,66.021h-50c-5.522,0-10,4.478-10,10s4.478,10,10,10h50c5.522,0,10-4.478,10-10    S66.512,66.021,60.989,66.021z"/><path style="fill:#3A98FF;" d="M10.989,146.021h30c5.522,0,10-4.478,10-10s-4.478-10-10-10h-30c-5.522,0-10,4.478-10,10    S5.467,146.021,10.989,146.021z"/><path style="fill:#3A98FF;" d="M60.989,186.021h-50c-5.522,0-10,4.478-10,10s4.478,10,10,10h50c5.522,0,10-4.478,10-10    S66.512,186.021,60.989,186.021z"/><path style="fill:#3A98FF;" d="M10.989,266.021h30c5.522,0,10-4.478,10-10c0-5.522-4.478-10-10-10h-30c-5.522,0-10,4.478-10,10    C0.989,261.544,5.467,266.021,10.989,266.021z"/><path style="fill:#3A98FF;" d="M60.989,306.021h-50c-5.522,0-10,4.478-10,10s4.478,10,10,10h50c5.522,0,10-4.478,10-10    S66.512,306.021,60.989,306.021z"/><path style="fill:#3A98FF;" d="M10.989,386.021h30c5.522,0,10-4.478,10-10s-4.478-10-10-10h-30c-5.522,0-10,4.478-10,10    S5.467,386.021,10.989,386.021z"/><path style="fill:#3A98FF;" d="M60.989,426.021h-50c-5.522,0-10,4.478-10,10s4.478,10,10,10h50c5.522,0,10-4.478,10-10    S66.512,426.021,60.989,426.021z"/><g><path style="fill:#283954;" d="M120.989,1.021h-110c-5.522,0-10,4.478-10,10v490c0,5.522,4.478,10,10,10h110     c5.522,0,10-4.478,10-10v-490C130.989,5.499,126.512,1.021,120.989,1.021z M110.989,491.021h-90v-470h90V491.021z"/><path style="fill:#283954;" d="M330.541,118.051c-0.288-0.926,2.615,5.445-45.715-98.668c-11.385-24.522-46.272-24.556-57.672,0     c-48.34,104.133-45.427,97.742-45.715,98.668c-0.238,0.757-0.432,1.876-0.443,2.856c-0.009,0.785-0.006,345.775-0.006,350.114     c0,22.056,17.944,40,40,40h70c22.056,0,40-17.944,40-40c0-4.463,0.003-349.314-0.006-350.124     C330.976,120.289,330.787,118.846,330.541,118.051z M200.989,131.021h110v280h-110V131.021z M245.294,27.805     c1.984-4.274,5.982-6.826,10.695-6.826c4.713,0,8.711,2.552,10.695,6.826l38.637,83.217h-98.664L245.294,27.805z      M290.989,491.021h-70c-11.028,0-20-8.972-20-20v-40h110v40C310.989,482.05,302.018,491.021,290.989,491.021z"/><path style="fill:#283954;" d="M487.52,151.311c-5.522,0-10,4.478-10,10v41.529c0,4.517-3.674,8.19-8.19,8.19h-1.871     c-0.013,0-0.025,0-0.038,0h-42.302c-0.022-0.001-0.044,0-0.066,0h-1.843c-4.516,0-8.189-3.674-8.189-8.19v-36     c0-5.522-4.478-10-10-10s-10,4.478-10,10v36c0,12.219,7.816,22.643,18.709,26.546c-9.766,82.072-9.682,173.197-1.329,251.537     c1.828,17.158,16.388,30.098,33.866,30.098c17.478,0,32.037-12.938,33.867-30.098c8.336-78.206,8.454-169.321-1.329-251.536     c10.896-3.901,18.715-14.327,18.715-26.547v-41.529C497.52,155.789,493.042,151.311,487.52,151.311z M460.247,478.804     c-0.743,6.965-6.753,12.218-13.98,12.218s-13.237-5.252-13.979-12.218c-8.421-78.98-8.07-168.819,1.386-247.772h25.188     C468.329,310.089,468.657,399.899,460.247,478.804z"/></g><path style="fill:#3A98FF;" d="M504.148,78.847c-19.805-53.024-73.291-71.694-83.813-74.898c-3.907-1.188-8.14,0.114-10.699,3.292    c-2.562,3.178-2.934,7.593-0.942,11.155c3.525,6.304,14.096,28.849,2.125,54.301c-8.795,18.705-35.781,35.362-28.093,73.809    c5.432,27.169,33.003,47.086,65.94,44.249c28.774-2.48,53.067-21.807,59.076-46.999    C513.083,121.371,511.873,99.533,504.148,78.847z M488.288,139.114c-4.036,16.923-21.036,29.964-41.339,31.714    c-21.834,1.886-41.016-10.26-44.612-28.245c-5.702-28.519,16.259-39.422,26.58-61.376c8.837-18.788,8.519-36.36,5.666-49.757    c17.203,8.958,40.11,25.696,50.828,54.395C491.723,102.741,492.691,120.664,488.288,139.114z"/></g></g><g id="Layer_1"/></svg>