<?xml version="1.0" ?><svg xmlns="http://www.w3.org/2000/svg" xmlns:xlink="http://www.w3.org/1999/xlink" version="1.1" viewBox="0 0 512 512" style="enable-background:new 0 0 512 512;" xml:space="preserve"><g id="_x34_5_x2C__cutter_x2C__blade_x2C__carpentry_x2C__cut_x2C__art_and_design_x2C__Tools_and_utensils"><g><g><path style="fill:#3A98FF;" d="M317.083,309.976l-30.636-30.636c1.325-3.724,2.017-7.688,2.017-11.758     c0-19.338-15.651-34.982-34.982-34.982c-4.07,0-8.033,0.691-11.757,2.017l-80.1-80.1c-11.691-11.691-30.717-11.691-42.408,0     c-11.719,11.721-11.718,30.687,0,42.407l80.118,80.118c-4.37,12.327-1.635,26.63,8.211,36.477     c9.848,9.846,24.15,12.581,36.477,8.211l30.653,30.653c11.692,11.691,30.717,11.691,42.408,0     C328.775,340.692,328.775,321.667,317.083,309.976z M133.359,168.659c3.893-3.895,10.23-3.895,14.123,0l77.725,77.724     l-14.124,14.123l-77.725-77.725C129.465,178.888,129.465,172.553,133.359,168.659z M221.688,299.376     c-5.843-5.842-5.843-15.348,0-21.189l21.199-21.198c5.783-5.783,15.049-5.829,20.899-0.287c5.353,5.071,6.165,13.195,2.17,19.187     c-1.45,2.167-1.098,1.371-23.079,23.488C237.035,305.218,227.529,305.218,221.688,299.376z M302.941,338.24     c-3.893,3.895-10.23,3.895-14.123,0l-28.26-28.26l14.122-14.123l28.261,28.261C306.834,328.012,306.834,334.347,302.941,338.24z"/></g><g><path style="fill:#283954;" d="M508.081,458.576l-114.16-114.16c9.03-15.325,6.972-35.427-6.175-48.574L154.558,62.654     c-35.07-35.069-92.133-35.069-127.203,0c-35.155,35.155-35.151,92.052,0,127.203l233.188,233.188     c13.147,13.147,33.249,15.206,48.575,6.175l43.497,43.498c1.876,1.875,4.419,2.929,7.071,2.929H501.01     c4.045,0,7.691-2.437,9.239-6.173C511.796,465.737,510.941,461.437,508.081,458.576z M41.497,76.797     c24.871-24.871,63.958-27.049,91.333-6.558l-97.895,97.894C14.381,140.725,16.564,101.728,41.497,76.797z M274.685,408.903     L48.569,182.786l98.918-98.918l226.117,226.117c7.512,7.512,8.073,20.004-0.004,28.252c-0.196,0.196-70.564,70.568-70.694,70.698     C295.113,416.693,282.463,416.683,274.685,408.903z M363.827,455.648l-39.673-39.673l56.52-56.52l96.193,96.193H363.827z"/></g></g></g><g id="Layer_1"/></svg>