<?xml version="1.0" ?><svg xmlns="http://www.w3.org/2000/svg" xmlns:xlink="http://www.w3.org/1999/xlink" version="1.1" viewBox="0 0 512 512" style="enable-background:new 0 0 512 512;" xml:space="preserve"><g id="_x31_5_x2C__wood_axe_x2C__wood_x2C__axe_x2C__construction_and_tools_x2C__bushcraft_x2C__woodcutter"><g><g><path style="fill:#3A98FF;" d="M498.163,185.642L324.388,64.427c1.781-2.555,3.682-5.284,5.714-8.202     c3.158-4.531,2.046-10.766-2.481-13.924l-56.24-39.23c-4.527-3.159-10.763-2.049-13.923,2.48l-5.723,8.204L241.19,6.401     c-13.603-9.49-32.284-6.156-41.771,7.441c-9.464,13.568-6.125,32.307,7.443,41.771l9.435,6.581     c-21.022,21.083-51.813,30.557-81.191,24.477c-7.344-1.519-13.683,5.299-11.652,12.504     c16.809,59.669,62.078,99.38,117.149,111.591c5.37,1.193,10.728-2.188,11.928-7.598c1.196-5.392-2.206-10.732-7.598-11.928     c-44.814-9.937-80.387-40.082-97.338-82.86c37.68,1.917,73.558-15.787,94.954-46.505l25.59-36.68l39.837,27.788     c-26.054,37.433-26.161,37.288-28.78,41.531c-21.11,33.965-21.926,76.665-2.128,111.437c2.734,4.8,8.841,6.472,13.639,3.742     c4.799-2.733,6.475-8.839,3.742-13.639c-14.397-25.285-15.433-55.699-3.303-81.658l172.69,120.457     c9.222,6.432,21.115,7.168,31.04,1.992c9.945-5.189,16.123-15.381,16.123-26.599C511,200.447,506.201,191.249,498.163,185.642z      M215.824,25.285c3.157-4.527,9.38-5.65,13.924-2.48l10.543,7.354l-11.444,16.405l-10.542-7.354     C213.769,36.047,212.661,29.817,215.824,25.285z M485.625,219.114c-3.365,1.756-7.233,1.507-10.347-0.664L301.491,97.227     c2.293-3.286,5.822-8.328,11.455-16.397l173.776,121.216C492.743,206.246,492.437,215.561,485.625,219.114z"/></g><g><path style="fill:#283954;" d="M351,432.27V201.004c0-5.522-4.478-10-10-10H41c-5.522,0-10,4.478-10,10V432.27     c-17.233,4.452-30,20.13-30,38.734c0,22.056,17.944,40,40,40h300c22.056,0,40-17.944,40-40C381,452.4,368.233,436.721,351,432.27     z M331,431.004h-40v-220h40V431.004z M231,431.004v-220h40v220H231z M171,431.004v-220h40v220H171z M111,431.004v-220h40v220H111     z M51,211.004h40v220H51V211.004z M341,491.004H41c-11.028,0-20-8.972-20-20s8.972-20,20-20h300c11.028,0,20,8.972,20,20     S352.028,491.004,341,491.004z"/></g></g></g><g id="Layer_1"/></svg>