<?xml version="1.0" ?><svg xmlns="http://www.w3.org/2000/svg" xmlns:xlink="http://www.w3.org/1999/xlink" version="1.1" viewBox="0 0 512 512" style="enable-background:new 0 0 512 512;" xml:space="preserve"><g id="_x34_7_x2C__notes_x2C__paper_x2C__pencil_x2C__document_x2C__agenda_x2C__writing"><g><g><path style="fill:#283954;" d="M420.215,151.75c5.522,0,10-4.478,10-10V71c0-38.599-31.401-70-70-70h-250     C76.765,1,48.737,24.588,41.85,56h-6.635c-19.299,0-35,15.701-35,35s15.701,35,35,35h5v40h-5c-19.299,0-35,15.701-35,35     s15.701,35,35,35h5v40h-5c-19.299,0-35,15.701-35,35s15.701,35,35,35h5v40h-5c-19.299,0-35,15.701-35,35s15.701,35,35,35h6.635     c6.887,31.412,34.915,55,68.365,55h250c38.599,0,70-31.401,70-70V270.07c0-5.522-4.478-10-10-10s-10,4.478-10,10V441     c0,27.57-22.43,50-50,50h-210V21h210c27.57,0,50,22.43,50,50v70.75C410.215,147.272,414.692,151.75,420.215,151.75z M35.215,106     c-8.271,0-15-6.729-15-15s6.729-15,15-15h5v30H35.215z M35.215,216c-8.271,0-15-6.729-15-15s6.729-15,15-15h5v30H35.215z      M35.215,326c-8.271,0-15-6.729-15-15s6.729-15,15-15h5v30H35.215z M20.215,421c0-8.271,6.729-15,15-15h5v30h-5     C26.943,436,20.215,429.271,20.215,421z M130.215,491h-20c-27.57,0-50-22.43-50-50v-35h15c8.271,0,15,6.729,15,15     c0,5.522,4.478,10,10,10s10-4.478,10-10c0-19.299-15.701-35-35-35h-15v-90h15c8.271,0,15,6.729,15,15c0,5.522,4.478,10,10,10     s10-4.478,10-10c0-19.299-15.701-35-35-35h-15v-90h15c8.271,0,15,6.729,15,15c0,5.522,4.478,10,10,10s10-4.478,10-10     c0-19.299-15.701-35-35-35h-15V76h15c8.271,0,15,6.729,15,15c0,5.522,4.478,10,10,10s10-4.478,10-10c0-19.299-15.701-35-35-35     H62.517c6.386-20.264,25.352-35,47.698-35h20V491z"/><path style="fill:#283954;" d="M330.215,216c0-19.299-15.701-35-35-35h-90c-19.299,0-35,15.701-35,35s15.701,35,35,35h90     C314.514,251,330.215,235.299,330.215,216z M190.215,216c0-8.271,6.729-15,15-15h90c8.271,0,15,6.729,15,15s-6.729,15-15,15h-90     C196.943,231,190.215,224.271,190.215,216z"/><path style="fill:#283954;" d="M280.215,291c0-5.522-4.478-10-10-10h-90c-5.522,0-10,4.478-10,10s4.478,10,10,10h90     C275.737,301,280.215,296.522,280.215,291z"/><path style="fill:#283954;" d="M240.215,331h-60c-5.522,0-10,4.478-10,10s4.478,10,10,10h60c5.522,0,10-4.478,10-10     S245.737,331,240.215,331z"/><path style="fill:#283954;" d="M240.215,381h-60c-5.522,0-10,4.478-10,10s4.478,10,10,10h60c5.522,0,10-4.478,10-10     S245.737,381,240.215,381z"/></g><g><path style="fill:#3A98FF;" d="M495.889,107.975l-16.762-10.911c-16.176-10.526-37.9-5.932-48.427,10.242L280.685,337.785     c-0.848,1.306-1.386,2.862-1.555,4.324l-8.852,77.76c-0.674,5.913,3.955,11.131,9.936,11.131c1.745,0,3.493-0.456,5.057-1.373     l67.52-39.574c1.254-0.737,2.469-1.856,3.324-3.172l150.014-230.479C516.656,140.228,512.063,118.503,495.889,107.975z      M344.809,367.59c-13.337-8.68-28.57-18.595-41.906-27.275l114.557-176.003l41.905,27.275L344.809,367.59z M292.413,402.26     l4.759-41.812l31.547,20.532L292.413,402.26z M489.367,145.491l-19.093,29.334l-41.905-27.275l19.093-29.334     c4.513-6.931,13.822-8.898,20.755-4.39l16.762,10.91C491.91,129.249,493.879,138.56,489.367,145.491z"/><path style="fill:#3A98FF;" d="M390.215,121V81c0-16.542-13.458-30-30-30h-160c-16.542,0-30,13.458-30,30v40     c0,16.542,13.458,30,30,30h160C376.757,151,390.215,137.542,390.215,121z M190.215,121V81c0-5.514,4.486-10,10-10h160     c5.514,0,10,4.486,10,10v40c0,5.514-4.486,10-10,10h-160C194.701,131,190.215,126.514,190.215,121z"/></g></g></g><g id="Layer_1"/></svg>